# xmcd
#
# Track frame offsets: 
#        150
#        15880
#        31196
#        44307
#        62507
#        78254
#        90624
#        108724
#        123841
#        142201
#        156633
#        166540
#        184061
#        202168
#        217650
#        229757
#        258443
#
# Disc length: 3705 seconds
#
# Revision: 0
# Processed by: cddbd v1.5.2PL0 Copyright (c) Steve Scherf et al.
# Submitted via: ExactAudioCopy v0.99pb5
#
DISCID=dc0e7711
DTITLE=Nick and Simon - Fier
DYEAR=2010
DGENRE=National Folk
TTITLE0=Een Nieuwe Dag
TTITLE1=Vallen En Opstaan
TTITLE2=Bij Je Zijn
TTITLE3=Mag Ik Met Je Mee?
TTITLE4=Wijzer (Dan Je Was)
TTITLE5=Alles Of Niets
TTITLE6=Onvrijwillig Vrij
TTITLE7=Een Zomer Lang
TTITLE8=Blind Voor Mijn Ogen
TTITLE9=Zonder Liefde
TTITLE10=Vaderdag
TTITLE11=Vlinders
TTITLE12=Kreeg Ik Maar Genoeg
TTITLE13=Vanmorgen Vanmiddag Vanavond
TTITLE14=Wat Een Nacht
TTITLE15=De Laatste Dans
TTITLE16=Een Nieuwe Dag
EXTD=
EXTT0=
EXTT1=
EXTT2=
EXTT3=
EXTT4=
EXTT5=
EXTT6=
EXTT7=
EXTT8=
EXTT9=
EXTT10=
EXTT11=
EXTT12=
EXTT13=
EXTT14=
EXTT15=
EXTT16=
PLAYORDER=
